<mxfile host="app.diagrams.net" agent="Mozilla/5.0 (Windows NT 10.0; Win64; x64) AppleWebKit/537.36 (KHTML, like Gecko) Chrome/128.0.0.0 Safari/537.36 Edg/128.0.0.0" version="24.7.10">
  <diagram name="Page-1" id="8uXgbVnsiFkI5fn-PE1t">
    <mxGraphModel dx="1042" dy="1633" grid="1" gridSize="10" guides="1" tooltips="1" connect="1" arrows="1" fold="1" page="1" pageScale="1" pageWidth="850" pageHeight="1100" background="#FFFFFF" math="0" shadow="0">
      <root>
        <mxCell id="0" />
        <mxCell id="1" parent="0" />
        <mxCell id="-dqIKU70jWa9wTGbZ1hN-7" value="" style="rounded=1;whiteSpace=wrap;html=1;" parent="1" vertex="1">
          <mxGeometry x="50" y="120" width="640" height="600" as="geometry" />
        </mxCell>
        <mxCell id="-dqIKU70jWa9wTGbZ1hN-6" value="C2 Server&lt;div&gt;Mythic&lt;br&gt;&lt;div&gt;&lt;br&gt;&lt;/div&gt;&lt;/div&gt;" style="outlineConnect=0;dashed=0;verticalLabelPosition=bottom;verticalAlign=top;align=center;html=1;shape=mxgraph.aws3.traditional_server;fillColor=#F82828;strokeColor=#b85450;" parent="1" vertex="1">
          <mxGeometry x="756.75" y="150" width="46.5" height="63" as="geometry" />
        </mxCell>
        <mxCell id="-dqIKU70jWa9wTGbZ1hN-8" value="VULTR Cloud" style="text;html=1;align=center;verticalAlign=middle;whiteSpace=wrap;rounded=0;" parent="1" vertex="1">
          <mxGeometry x="80" y="140" width="60" height="30" as="geometry" />
        </mxCell>
        <mxCell id="-dqIKU70jWa9wTGbZ1hN-12" value="VPC" style="sketch=0;outlineConnect=0;gradientColor=none;html=1;whiteSpace=wrap;fontSize=12;fontStyle=0;shape=mxgraph.aws4.group;grIcon=mxgraph.aws4.group_vpc;strokeColor=#879196;fillColor=none;verticalAlign=top;align=left;spacingLeft=30;fontColor=#879196;dashed=0;" parent="1" vertex="1">
          <mxGeometry x="80" y="200" width="570" height="340" as="geometry" />
        </mxCell>
        <mxCell id="-dqIKU70jWa9wTGbZ1hN-1" value="Elastic &amp;amp;&amp;nbsp;&lt;div&gt;Kibana&lt;/div&gt;" style="outlineConnect=0;dashed=0;verticalLabelPosition=bottom;verticalAlign=top;align=center;html=1;shape=mxgraph.aws3.traditional_server;fillColor=#dae8fc;strokeColor=#6c8ebf;" parent="1" vertex="1">
          <mxGeometry x="350" y="240" width="46.5" height="63" as="geometry" />
        </mxCell>
        <mxCell id="-dqIKU70jWa9wTGbZ1hN-14" style="edgeStyle=orthogonalEdgeStyle;rounded=0;orthogonalLoop=1;jettySize=auto;html=1;exitX=1;exitY=0.5;exitDx=0;exitDy=0;exitPerimeter=0;" parent="1" source="-dqIKU70jWa9wTGbZ1hN-2" target="-dqIKU70jWa9wTGbZ1hN-5" edge="1">
          <mxGeometry relative="1" as="geometry" />
        </mxCell>
        <mxCell id="-dqIKU70jWa9wTGbZ1hN-16" value="Managed" style="edgeLabel;html=1;align=center;verticalAlign=middle;resizable=0;points=[];" parent="-dqIKU70jWa9wTGbZ1hN-14" vertex="1" connectable="0">
          <mxGeometry x="-0.12" y="-2" relative="1" as="geometry">
            <mxPoint as="offset" />
          </mxGeometry>
        </mxCell>
        <mxCell id="-dqIKU70jWa9wTGbZ1hN-2" value="Windows Server&lt;div&gt;RDP Enabled&lt;/div&gt;" style="outlineConnect=0;dashed=0;verticalLabelPosition=bottom;verticalAlign=top;align=center;html=1;shape=mxgraph.aws3.traditional_server;fillColor=#ffe6cc;strokeColor=#d79b00;" parent="1" vertex="1">
          <mxGeometry x="180" y="420" width="50" height="63" as="geometry" />
        </mxCell>
        <mxCell id="-dqIKU70jWa9wTGbZ1hN-15" style="edgeStyle=orthogonalEdgeStyle;rounded=0;orthogonalLoop=1;jettySize=auto;html=1;exitX=0;exitY=0.5;exitDx=0;exitDy=0;exitPerimeter=0;" parent="1" source="-dqIKU70jWa9wTGbZ1hN-3" target="-dqIKU70jWa9wTGbZ1hN-5" edge="1">
          <mxGeometry relative="1" as="geometry" />
        </mxCell>
        <mxCell id="-dqIKU70jWa9wTGbZ1hN-17" value="Managed" style="edgeLabel;html=1;align=center;verticalAlign=middle;resizable=0;points=[];" parent="-dqIKU70jWa9wTGbZ1hN-15" vertex="1" connectable="0">
          <mxGeometry x="-0.1266" y="-3" relative="1" as="geometry">
            <mxPoint as="offset" />
          </mxGeometry>
        </mxCell>
        <mxCell id="-dqIKU70jWa9wTGbZ1hN-3" value="ubuntu Server&lt;div&gt;SSH Enabled&lt;/div&gt;" style="outlineConnect=0;dashed=0;verticalLabelPosition=bottom;verticalAlign=top;align=center;html=1;shape=mxgraph.aws3.traditional_server;fillColor=#bac8d3;strokeColor=#23445d;" parent="1" vertex="1">
          <mxGeometry x="500" y="420" width="46.5" height="63" as="geometry" />
        </mxCell>
        <mxCell id="-dqIKU70jWa9wTGbZ1hN-18" style="edgeStyle=orthogonalEdgeStyle;rounded=0;orthogonalLoop=1;jettySize=auto;html=1;startArrow=classic;startFill=1;strokeColor=#FF9933;dashed=1;" parent="1" source="-dqIKU70jWa9wTGbZ1hN-5" target="-dqIKU70jWa9wTGbZ1hN-1" edge="1">
          <mxGeometry relative="1" as="geometry" />
        </mxCell>
        <mxCell id="-dqIKU70jWa9wTGbZ1hN-22" value="Managed Agents" style="edgeLabel;html=1;align=center;verticalAlign=middle;resizable=0;points=[];" parent="-dqIKU70jWa9wTGbZ1hN-18" vertex="1" connectable="0">
          <mxGeometry x="-0.0872" y="-1" relative="1" as="geometry">
            <mxPoint as="offset" />
          </mxGeometry>
        </mxCell>
        <mxCell id="-dqIKU70jWa9wTGbZ1hN-5" value="Fleet Server" style="outlineConnect=0;dashed=0;verticalLabelPosition=bottom;verticalAlign=top;align=center;html=1;shape=mxgraph.aws3.traditional_server;fillColor=#7D7C7C;gradientColor=none;" parent="1" vertex="1">
          <mxGeometry x="350" y="420" width="46.5" height="63" as="geometry" />
        </mxCell>
        <mxCell id="-dqIKU70jWa9wTGbZ1hN-4" value="osTicket Server" style="outlineConnect=0;dashed=0;verticalLabelPosition=bottom;verticalAlign=top;align=center;html=1;shape=mxgraph.aws3.traditional_server;fillColor=#e1d5e7;strokeColor=#9673a6;" parent="1" vertex="1">
          <mxGeometry x="500" y="240" width="46.5" height="63" as="geometry" />
        </mxCell>
        <mxCell id="-dqIKU70jWa9wTGbZ1hN-20" style="edgeStyle=orthogonalEdgeStyle;rounded=0;orthogonalLoop=1;jettySize=auto;html=1;exitX=1;exitY=0.5;exitDx=0;exitDy=0;exitPerimeter=0;entryX=0;entryY=0.5;entryDx=0;entryDy=0;entryPerimeter=0;startArrow=classic;startFill=1;fillColor=#fad7ac;strokeColor=#FF9933;dashed=1;" parent="1" source="-dqIKU70jWa9wTGbZ1hN-1" target="-dqIKU70jWa9wTGbZ1hN-4" edge="1">
          <mxGeometry relative="1" as="geometry" />
        </mxCell>
        <mxCell id="-dqIKU70jWa9wTGbZ1hN-21" value="Alerts/Tickets" style="edgeLabel;html=1;align=center;verticalAlign=middle;resizable=0;points=[];" parent="-dqIKU70jWa9wTGbZ1hN-20" vertex="1" connectable="0">
          <mxGeometry x="0.0106" relative="1" as="geometry">
            <mxPoint as="offset" />
          </mxGeometry>
        </mxCell>
        <mxCell id="-dqIKU70jWa9wTGbZ1hN-23" style="rounded=0;orthogonalLoop=1;jettySize=auto;html=1;entryX=0;entryY=0.5;entryDx=0;entryDy=0;entryPerimeter=0;dashed=1;dashPattern=12 12;fillColor=#b1ddf0;strokeColor=#10739e;" parent="1" source="-dqIKU70jWa9wTGbZ1hN-2" target="-dqIKU70jWa9wTGbZ1hN-1" edge="1">
          <mxGeometry relative="1" as="geometry" />
        </mxCell>
        <mxCell id="-dqIKU70jWa9wTGbZ1hN-25" value="Forwarded Logs&amp;nbsp;&lt;div&gt;via Agent&lt;/div&gt;" style="edgeLabel;html=1;align=center;verticalAlign=middle;resizable=0;points=[];" parent="-dqIKU70jWa9wTGbZ1hN-23" vertex="1" connectable="0">
          <mxGeometry x="-0.106" y="1" relative="1" as="geometry">
            <mxPoint as="offset" />
          </mxGeometry>
        </mxCell>
        <mxCell id="-dqIKU70jWa9wTGbZ1hN-24" style="rounded=0;orthogonalLoop=1;jettySize=auto;html=1;exitX=0.5;exitY=0;exitDx=0;exitDy=0;exitPerimeter=0;entryX=1;entryY=0.5;entryDx=0;entryDy=0;entryPerimeter=0;fillColor=#b1ddf0;strokeColor=#10739e;dashed=1;dashPattern=8 8;" parent="1" source="-dqIKU70jWa9wTGbZ1hN-3" target="-dqIKU70jWa9wTGbZ1hN-1" edge="1">
          <mxGeometry relative="1" as="geometry" />
        </mxCell>
        <mxCell id="-dqIKU70jWa9wTGbZ1hN-26" value="Forwarded Logs via&lt;div&gt;Agent&lt;/div&gt;" style="edgeLabel;html=1;align=center;verticalAlign=middle;resizable=0;points=[];" parent="-dqIKU70jWa9wTGbZ1hN-24" vertex="1" connectable="0">
          <mxGeometry x="-0.0842" y="2" relative="1" as="geometry">
            <mxPoint as="offset" />
          </mxGeometry>
        </mxCell>
        <mxCell id="-dqIKU70jWa9wTGbZ1hN-27" value="Private Network:&amp;nbsp;&lt;span style=&quot;background-color: initial;&quot;&gt;172.31.0.0/24&lt;/span&gt;&lt;div&gt;IP Range: 172.31.0.1-.255&lt;/div&gt;&lt;div&gt;Subnet Mask: 255.255.255.0&lt;/div&gt;" style="text;html=1;align=left;verticalAlign=middle;whiteSpace=wrap;rounded=0;" parent="1" vertex="1">
          <mxGeometry x="90" y="240" width="170" height="30" as="geometry" />
        </mxCell>
        <mxCell id="-dqIKU70jWa9wTGbZ1hN-28" value="" style="outlineConnect=0;dashed=0;verticalLabelPosition=bottom;verticalAlign=top;align=center;html=1;shape=mxgraph.aws3.internet_gateway;fillColor=#F58534;gradientColor=none;" parent="1" vertex="1">
          <mxGeometry x="353.25" y="134.5" width="40" height="41" as="geometry" />
        </mxCell>
        <mxCell id="-dqIKU70jWa9wTGbZ1hN-30" style="rounded=0;orthogonalLoop=1;jettySize=auto;html=1;" parent="1" source="-dqIKU70jWa9wTGbZ1hN-29" target="-dqIKU70jWa9wTGbZ1hN-28" edge="1">
          <mxGeometry relative="1" as="geometry" />
        </mxCell>
        <mxCell id="-dqIKU70jWa9wTGbZ1hN-29" value="Internet&lt;div&gt;&lt;br&gt;&lt;/div&gt;" style="ellipse;shape=cloud;whiteSpace=wrap;html=1;" parent="1" vertex="1">
          <mxGeometry x="425" y="-10" width="100" height="70" as="geometry" />
        </mxCell>
        <mxCell id="-dqIKU70jWa9wTGbZ1hN-31" style="rounded=0;orthogonalLoop=1;jettySize=auto;html=1;" parent="1" source="-dqIKU70jWa9wTGbZ1hN-28" target="-dqIKU70jWa9wTGbZ1hN-12" edge="1">
          <mxGeometry relative="1" as="geometry" />
        </mxCell>
        <mxCell id="-dqIKU70jWa9wTGbZ1hN-32" value="SOC Analyst laptop" style="verticalLabelPosition=bottom;html=1;verticalAlign=top;align=center;strokeColor=none;fillColor=#00BEF2;shape=mxgraph.azure.laptop;pointerEvents=1;" parent="1" vertex="1">
          <mxGeometry x="70" width="100" height="70" as="geometry" />
        </mxCell>
        <mxCell id="-dqIKU70jWa9wTGbZ1hN-33" style="edgeStyle=orthogonalEdgeStyle;rounded=0;orthogonalLoop=1;jettySize=auto;html=1;entryX=0.1;entryY=0.643;entryDx=0;entryDy=0;entryPerimeter=0;" parent="1" source="-dqIKU70jWa9wTGbZ1hN-32" target="-dqIKU70jWa9wTGbZ1hN-29" edge="1">
          <mxGeometry relative="1" as="geometry" />
        </mxCell>
        <mxCell id="-dqIKU70jWa9wTGbZ1hN-34" value="Connect to Elastic &amp;amp; Kibana&amp;nbsp;&lt;div&gt;via GUI&lt;/div&gt;" style="edgeLabel;html=1;align=center;verticalAlign=middle;resizable=0;points=[];" parent="-dqIKU70jWa9wTGbZ1hN-33" vertex="1" connectable="0">
          <mxGeometry x="-0.0275" y="-3" relative="1" as="geometry">
            <mxPoint as="offset" />
          </mxGeometry>
        </mxCell>
        <mxCell id="-dqIKU70jWa9wTGbZ1hN-35" value="&lt;font color=&quot;#000000&quot;&gt;Attacker Laptop&lt;/font&gt;&lt;div&gt;&lt;font color=&quot;#000000&quot;&gt;Kali Linux&lt;/font&gt;&lt;/div&gt;" style="verticalLabelPosition=bottom;html=1;verticalAlign=top;align=center;strokeColor=#B20000;fillColor=#e51400;shape=mxgraph.azure.laptop;pointerEvents=1;fontColor=#ffffff;" parent="1" vertex="1">
          <mxGeometry x="720" width="120" height="80" as="geometry" />
        </mxCell>
        <mxCell id="-dqIKU70jWa9wTGbZ1hN-38" style="edgeStyle=orthogonalEdgeStyle;rounded=0;orthogonalLoop=1;jettySize=auto;html=1;entryX=0.96;entryY=0.7;entryDx=0;entryDy=0;entryPerimeter=0;" parent="1" source="-dqIKU70jWa9wTGbZ1hN-35" target="-dqIKU70jWa9wTGbZ1hN-29" edge="1">
          <mxGeometry relative="1" as="geometry" />
        </mxCell>
        <mxCell id="-dqIKU70jWa9wTGbZ1hN-39" style="rounded=0;orthogonalLoop=1;jettySize=auto;html=1;entryX=0.8;entryY=0.8;entryDx=0;entryDy=0;entryPerimeter=0;" parent="1" source="-dqIKU70jWa9wTGbZ1hN-6" target="-dqIKU70jWa9wTGbZ1hN-29" edge="1">
          <mxGeometry relative="1" as="geometry" />
        </mxCell>
      </root>
    </mxGraphModel>
  </diagram>
</mxfile>
